<svg  xmlns="http://www.w3.org/2000/svg">
    <symbol viewBox="0 0 19 19" id="plus">
        <path d="M7.26007 18.6801V0.577813H11.8368V18.6801H7.26007ZM0.497287 11.9173V7.3406H18.5996V11.9173H0.497287Z"/>
    </symbol>
    <symbol viewBox="0 0 448 512" id="whatsapp">
      <path d="M380.9 97.1C339 55.1 283.2 32 223.9 32c-122.4 0-222 99.6-222 222 0 39.1 10.2 77.3 29.6 111L0 480l117.7-30.9c32.4 17.7 68.9 27 106.1 27h.1c122.3 0 224.1-99.6 224.1-222 0-59.3-25.2-115-67.1-157zm-157 341.6c-33.2 0-65.7-8.9-94-25.7l-6.7-4-69.8 18.3L72 359.2l-4.4-7c-18.5-29.4-28.2-63.3-28.2-98.2 0-101.7 82.8-184.5 184.6-184.5 49.3 0 95.6 19.2 130.4 54.1 34.8 34.9 56.2 81.2 56.1 130.5 0 101.8-84.9 184.6-186.6 184.6zm101.2-138.2c-5.5-2.8-32.8-16.2-37.9-18-5.1-1.9-8.8-2.8-12.5 2.8-3.7 5.6-14.3 18-17.6 21.8-3.2 3.7-6.5 4.2-12 1.4-32.6-16.3-54-29.1-75.5-66-5.7-9.8 5.7-9.1 16.3-30.3 1.8-3.7 .9-6.9-.5-9.7-1.4-2.8-12.5-30.1-17.1-41.2-4.5-10.8-9.1-9.3-12.5-9.5-3.2-.2-6.9-.2-10.6-.2-3.7 0-9.7 1.4-14.8 6.9-5.1 5.6-19.4 19-19.4 46.3 0 27.3 19.9 53.7 22.6 57.4 2.8 3.7 39.1 59.7 94.8 83.8 35.2 15.2 49 16.5 66.6 13.9 10.7-1.6 32.8-13.4 37.4-26.4 4.6-13 4.6-24.1 3.2-26.4-1.3-2.5-5-3.9-10.5-6.6z"/>
    </symbol>
    <symbol viewBox="0 0 496 512" id="tg">
        <path d="M248 8C111 8 0 119 0 256S111 504 248 504 496 393 496 256 385 8 248 8zM363 176.7c-3.7 39.2-19.9 134.4-28.1 178.3-3.5 18.6-10.3 24.8-16.9 25.4-14.4 1.3-25.3-9.5-39.3-18.7-21.8-14.3-34.2-23.2-55.3-37.2-24.5-16.1-8.6-25 5.3-39.5 3.7-3.8 67.1-61.5 68.3-66.7 .2-.7 .3-3.1-1.2-4.4s-3.6-.8-5.1-.5q-3.3 .7-104.6 69.1-14.8 10.2-26.9 9.9c-8.9-.2-25.9-5-38.6-9.1-15.5-5-27.9-7.7-26.8-16.3q.8-6.7 18.5-13.7 108.4-47.2 144.6-62.3c68.9-28.6 83.2-33.6 92.5-33.8 2.1 0 6.6 .5 9.6 2.9a10.5 10.5 0 0 1 3.5 6.7A43.8 43.8 0 0 1 363 176.7z"/>
    </symbol>
    <symbol viewBox="0 0 448 512" id="vk">
      <path d="M31.5 63.5C0 95 0 145.7 0 247V265C0 366.3 0 417 31.5 448.5C63 480 113.7 480 215 480H233C334.3 480 385 480 416.5 448.5C448 417 448 366.3 448 265V247C448 145.7 448 95 416.5 63.5C385 32 334.3 32 233 32H215C113.7 32 63 32 31.5 63.5zM75.6 168.3H126.7C128.4 253.8 166.1 290 196 297.4V168.3H244.2V242C273.7 238.8 304.6 205.2 315.1 168.3H363.3C359.3 187.4 351.5 205.6 340.2 221.6C328.9 237.6 314.5 251.1 297.7 261.2C316.4 270.5 332.9 283.6 346.1 299.8C359.4 315.9 369 334.6 374.5 354.7H321.4C316.6 337.3 306.6 321.6 292.9 309.8C279.1 297.9 262.2 290.4 244.2 288.1V354.7H238.4C136.3 354.7 78 284.7 75.6 168.3z"/>
    </symbol>
    <symbol viewBox="0 0 320 512" id="od">
        <path d="M275.1 334c-27.4 17.4-65.1 24.3-90 26.9l20.9 20.6 76.3 76.3c27.9 28.6-17.5 73.3-45.7 45.7-19.1-19.4-47.1-47.4-76.3-76.6L84 503.4c-28.2 27.5-73.6-17.6-45.4-45.7 19.4-19.4 47.1-47.4 76.3-76.3l20.6-20.6c-24.6-2.6-62.9-9.1-90.6-26.9-32.6-21-46.9-33.3-34.3-59 7.4-14.6 27.7-26.9 54.6-5.7 0 0 36.3 28.9 94.9 28.9s94.9-28.9 94.9-28.9c26.9-21.1 47.1-8.9 54.6 5.7 12.4 25.7-1.9 38-34.5 59.1zM30.3 129.7C30.3 58 88.6 0 160 0s129.7 58 129.7 129.7c0 71.4-58.3 129.4-129.7 129.4s-129.7-58-129.7-129.4zm66 0c0 35.1 28.6 63.7 63.7 63.7s63.7-28.6 63.7-63.7c0-35.4-28.6-64-63.7-64s-63.7 28.6-63.7 64z"/>
    </symbol>
    <symbol viewBox="0 0 576 512" id="you">
        <path d="M549.7 124.1c-6.3-23.7-24.8-42.3-48.3-48.6C458.8 64 288 64 288 64S117.2 64 74.6 75.5c-23.5 6.3-42 24.9-48.3 48.6-11.4 42.9-11.4 132.3-11.4 132.3s0 89.4 11.4 132.3c6.3 23.7 24.8 41.5 48.3 47.8C117.2 448 288 448 288 448s170.8 0 213.4-11.5c23.5-6.3 42-24.2 48.3-47.8 11.4-42.9 11.4-132.3 11.4-132.3s0-89.4-11.4-132.3zm-317.5 213.5V175.2l142.7 81.2-142.7 81.2z"/>
    </symbol>
    <symbol viewBox="0 0 31 35" id="play">
        <path d="M29.8046 14.4725C27.7142 12.1738 24.0056 8.71071 18.2033 5.27942C13.4317 2.45739 9.18487 0.958891 6.46116 0.198503C4.9329 -0.227823 3.31294 0.0378356 2.0258 0.93662C0.738661 1.837 0 3.2146 0 4.71788V30.2815C0 31.7848 0.740359 33.1624 2.0258 34.0628C2.91049 34.68 3.95311 34.9998 5.0161 34.9998C5.49836 34.9998 5.984 34.9329 6.46286 34.8009C9.18657 34.0405 13.4334 32.542 18.205 29.72C24.0073 26.2871 27.7159 22.8256 29.8063 20.5253C31.399 18.7723 31.3973 16.2255 29.8046 14.4725Z" fill="#4FB442"/>
    </symbol>
</svg>