<svg width="31" height="35" viewBox="0 0 31 35" fill="none" xmlns="http://www.w3.org/2000/svg">
<path d="M29.8046 14.4725C27.7142 12.1738 24.0056 8.71071 18.2033 5.27942C13.4317 2.45739 9.18487 0.958891 6.46116 0.198503C4.9329 -0.227823 3.31294 0.0378356 2.0258 0.93662C0.738661 1.837 0 3.2146 0 4.71788V30.2815C0 31.7848 0.740359 33.1624 2.0258 34.0628C2.91049 34.68 3.95311 34.9998 5.0161 34.9998C5.49836 34.9998 5.984 34.9329 6.46286 34.8009C9.18657 34.0405 13.4334 32.542 18.205 29.72C24.0073 26.2871 27.7159 22.8256 29.8063 20.5253C31.399 18.7723 31.3973 16.2255 29.8046 14.4725Z" fill="#4FB442"/>
</svg>
